<?xml version="1.0" encoding="UTF-8"?>
<svg width="17px" height="17px" viewBox="0 0 17 17" version="1.1" xmlns="http://www.w3.org/2000/svg" xmlns:xlink="http://www.w3.org/1999/xlink">
    <title>Shape</title>
    <g id="02.-Page-Landing" stroke="none" stroke-width="1" fill="none" fill-rule="evenodd">
        <g id="Landing-Desktop" transform="translate(-469.000000, -4835.000000)" fill="#FFFFFF" fill-rule="nonzero">
            <g id="Main" transform="translate(0.000000, 1550.000000)">
                <g id="Mint" transform="translate(0.000000, 2972.000000)">
                    <g id="Select+Btn" transform="translate(352.000000, 291.000000)">
                        <g id="Select-Content" transform="translate(30.000000, 21.000000)">
                            <path d="M95.125,1 C90.6376864,1 87,4.63768641 87,9.125 C87,13.6123136 90.6376864,17.25 95.125,17.25 C99.6123136,17.25 103.25,13.6123136 103.25,9.125 C103.244816,4.63983539 99.6101646,1.00518387 95.125,1 Z M97.7305906,9.58947734 L94.6055906,12.4019773 C94.4396678,12.5514768 94.2065749,12.6010651 93.9941657,12.5320521 C93.7817565,12.4630392 93.6223231,12.2859168 93.5759568,12.0674434 C93.5295905,11.84897 93.6033403,11.6223595 93.7694094,11.4730227 L96.3780516,9.125 L93.7694094,6.77697734 C93.5130875,6.54602664 93.4924249,6.15104903 93.7232501,5.89461407 C93.9540752,5.63817911 94.3490427,5.61732311 94.6055906,5.84802266 L97.7305906,8.66052266 C97.8622919,8.77901222 97.9375,8.94784184 97.9375,9.125 C97.9375,9.30215816 97.8622919,9.47098778 97.7305906,9.58947734 L97.7305906,9.58947734 Z" id="Shape" transform="translate(95.125000, 9.125000) rotate(-270.000000) translate(-95.125000, -9.125000) "></path>
                        </g>
                    </g>
                </g>
            </g>
        </g>
    </g>
</svg>