<?xml version="1.0" encoding="UTF-8"?>
<svg width="20px" height="20px" viewBox="0 0 20 20" version="1.1" xmlns="http://www.w3.org/2000/svg" xmlns:xlink="http://www.w3.org/1999/xlink">
    <title>ph-x-bold</title>
    <g id="03.-Page-Rarity" stroke="none" stroke-width="1" fill="none" fill-rule="evenodd">
        <g id="Rarity-Modal-Detail-Desktop" transform="translate(-1101.000000, -152.000000)">
            <g id="Modal" transform="translate(541.000000, 123.000000)">
                <g id="Header" transform="translate(18.000000, 29.000000)">
                    <g id="ph-x-bold" transform="translate(542.000000, 0.000000)">
                        <rect id="Rectangle" x="0" y="0" width="20" height="20"></rect>
                        <path d="M14.9620874,3.71208739 C15.3282039,3.34597087 15.9217961,3.34597087 16.2879126,3.71208739 C16.6468504,4.07102516 16.6538884,4.64860542 16.3090266,5.0161174 L16.2879126,5.03791261 L5.03791261,16.2879126 C4.67179608,16.6540291 4.07820392,16.6540291 3.71208739,16.2879126 C3.35314962,15.9289748 3.34611163,15.3513946 3.69097341,14.9838826 L3.71208739,14.9620874 L14.9620874,3.71208739 Z" id="Path" fill="#25262B" fill-rule="nonzero"></path>
                        <path d="M3.71208739,3.71208739 C4.07102516,3.35314962 4.64860542,3.34611163 5.0161174,3.69097341 L5.03791261,3.71208739 L16.2879126,14.9620874 C16.6540291,15.3282039 16.6540291,15.9217961 16.2879126,16.2879126 C15.9289748,16.6468504 15.3513946,16.6538884 14.9838826,16.3090266 L14.9620874,16.2879126 L3.71208739,5.03791261 C3.34597087,4.67179608 3.34597087,4.07820392 3.71208739,3.71208739 Z" id="Path" fill="#25262B" fill-rule="nonzero"></path>
                    </g>
                </g>
            </g>
        </g>
    </g>
</svg>