<?xml version="1.0" encoding="UTF-8"?>
<svg width="20px" height="20px" viewBox="0 0 20 20" version="1.1" xmlns="http://www.w3.org/2000/svg" xmlns:xlink="http://www.w3.org/1999/xlink">
    <title>ph-funnel-simple-bold</title>
    <g id="03.-Page-Rarity" stroke="none" stroke-width="1" fill="none" fill-rule="evenodd">
        <g id="Rarity-Mobile" transform="translate(-330.000000, -311.000000)">
            <g id="Main" transform="translate(0.000000, 300.000000)">
                <g id="ph-funnel-simple-bold" transform="translate(330.000000, 11.000000)">
                    <rect id="Rectangle" x="0" y="0" width="20" height="20"></rect>
                    <path d="M15,9.0625 C15.517767,9.0625 15.9375,9.48223305 15.9375,10 C15.9375,10.5085211 15.5326236,10.9224783 15.0276419,10.9371003 L15,10.9375 L5,10.9375 C4.48223305,10.9375 4.0625,10.517767 4.0625,10 C4.0625,9.49147889 4.46737642,9.07752173 4.9723581,9.0628997 L5,9.0625 L15,9.0625 Z" id="Path" fill="#34353C" fill-rule="nonzero"></path>
                    <path d="M18.125,5.3125 C18.642767,5.3125 19.0625,5.73223305 19.0625,6.25 C19.0625,6.75852111 18.6576236,7.17247827 18.1526419,7.1871003 L18.125,7.1875 L1.875,7.1875 C1.35723305,7.1875 0.9375,6.76776695 0.9375,6.25 C0.9375,5.74147889 1.34237642,5.32752173 1.8473581,5.3128997 L1.875,5.3125 L18.125,5.3125 Z" id="Path" fill="#34353C" fill-rule="nonzero"></path>
                    <path d="M11.875,12.8125 C12.392767,12.8125 12.8125,13.232233 12.8125,13.75 C12.8125,14.2585211 12.4076236,14.6724783 11.9026419,14.6871003 L11.875,14.6875 L8.125,14.6875 C7.60723305,14.6875 7.1875,14.267767 7.1875,13.75 C7.1875,13.2414789 7.59237642,12.8275217 8.0973581,12.8128997 L8.125,12.8125 L11.875,12.8125 Z" id="Path" fill="#34353C" fill-rule="nonzero"></path>
                </g>
            </g>
        </g>
    </g>
</svg>