<?xml version="1.0" encoding="UTF-8"?>
<svg width="16px" height="10px" viewBox="0 0 16 10" version="1.1" xmlns="http://www.w3.org/2000/svg" xmlns:xlink="http://www.w3.org/1999/xlink">
    <title>Medium</title>
    <g id="Symbols" stroke="none" stroke-width="1" fill="none" fill-rule="evenodd">
        <g id="Site-Footer-Desktop" transform="translate(-1559.000000, -140.000000)" fill="#FFFFFF" fill-rule="nonzero">
            <g id="Social" transform="translate(1391.000000, 137.000000)">
                <g id="Medium" transform="translate(168.000000, 3.028346)">
                    <path d="M9.02493775,4.54334419 C9.02493775,7.05259529 7.00463513,9.0868416 4.51239226,9.0868416 C2.0201494,9.0868416 0,7.0532082 0,4.54334419 C0,2.03348018 2.02030262,0 4.51239226,0 C7.0044819,0 9.02493775,2.03409309 9.02493775,4.54334419 M13.9752538,4.54334419 C13.9752538,6.90549703 12.9650259,8.82022601 11.718981,8.82022601 C10.4729362,8.82022601 9.46270829,6.90488412 9.46270829,4.54334419 C9.46270829,2.18180425 10.4729362,0.266462364 11.718981,0.266462364 C12.9650259,0.266462364 13.9752538,2.18180425 13.9752538,4.54334419 M16,4.54334419 C16,6.65972036 15.6446658,8.37525378 15.2064355,8.37525378 C14.7682053,8.37525378 14.4128711,6.65910745 14.4128711,4.54334419 C14.4128711,2.42758092 14.7682053,0.711434591 15.2065888,0.711434591 C15.6449722,0.711434591 16,2.42712124 16,4.54334419" id="path857"></path>
                </g>
            </g>
        </g>
    </g>
</svg>