<?xml version="1.0" encoding="UTF-8"?>
<svg width="16px" height="12px" viewBox="0 0 16 12" version="1.1" xmlns="http://www.w3.org/2000/svg" xmlns:xlink="http://www.w3.org/1999/xlink">
    <title>discord</title>
    <g id="02.-Landing-Page" stroke="none" stroke-width="1" fill="none" fill-rule="evenodd">
        <g id="Landing-Desktop" transform="translate(-1391.000000, -5925.000000)" fill="#FFFFFF" fill-rule="nonzero">
            <g id="Site-Footer" transform="translate(0.000000, 5786.000000)">
                <g id="Social" transform="translate(1391.000000, 137.000000)">
                    <g id="discord" transform="translate(0.000000, 2.000000)">
                        <path d="M13.7826099,1.31149295 C12.3980889,0.197363117 10.2078727,0.00850235031 10.1141336,0.00171104966 C9.96874241,-0.0105193785 9.83017727,0.0710023163 9.77039469,0.205515287 C9.76495991,0.213667456 9.71739472,0.32371957 9.66439475,0.494915129 C10.5801769,0.64980635 11.7051762,0.960949659 12.7228279,1.59274062 C12.8858713,1.69328404 12.9361321,1.90795784 12.8356104,2.07100558 C12.7690018,2.17835334 12.6562627,2.23674462 12.5393932,2.23674462 C12.476915,2.23674462 12.4130454,2.21909245 12.3559585,2.18378812 C10.6059595,1.09817567 8.42117803,1.04382787 8,1.04382787 C7.57878719,1.04382787 5.39265794,1.09817567 3.64401976,2.18378812 C3.48097637,2.28565763 3.26630257,2.23539679 3.16575915,2.0723534 C3.06385486,1.90795784 3.11412874,1.69464491 3.27717213,1.59274062 C4.29483245,0.96230618 5.41983184,0.64980635 6.33561395,0.496275998 C6.28261398,0.32371957 6.23504879,0.215023977 6.23096183,0.205515287 C6.16983143,0.0710023163 6.03261411,-0.0132367683 5.88587506,0.00171104966 C5.79213598,0.00850235031 3.60189804,0.197363117 2.19836837,1.32643642 C1.46602964,2.0044404 0,5.96639476 0,9.39165377 C0,9.45278417 0.016304339,9.51121892 0.0461956271,9.5642189 C1.05706464,11.3413918 3.81657184,11.8060438 4.44565845,11.8264351 C4.4483541,11.8264351 4.45244106,11.8264351 4.45652801,11.8264351 C4.56791926,11.8264351 4.67257137,11.7734351 4.73778873,11.683783 L5.37365795,10.8087834 C3.6576154,10.3658272 2.78124631,9.61313191 2.73097678,9.56826237 C2.58695512,9.44191461 2.57336817,9.22182778 2.70108549,9.07778438 C2.82744194,8.93378446 3.04755052,8.92017577 3.19157218,9.04652353 C3.21195478,9.06556699 4.82609303,10.4351315 8,10.4351315 C11.1793504,10.4351315 12.79348,9.06013221 12.8097843,9.04652353 C12.9537843,8.92152359 13.1725668,8.93378446 13.3002623,9.0791322 C13.4266101,9.2231756 13.4130449,9.44191461 13.2690015,9.56826237 C13.2187406,9.61313191 12.3423933,10.3658272 10.6263507,10.8087834 L11.26222,11.683783 C11.3274373,11.7734351 11.432046,11.8264351 11.5434807,11.8264351 C11.5475676,11.8264351 11.5516111,11.8264351 11.5543502,11.8264351 C12.1834369,11.8060438 14.9429136,11.3413918 15.9537826,9.5642189 C15.9836957,9.51121892 16,9.45278417 16,9.39165377 C16,5.96639476 14.5339573,2.0044404 13.7826099,1.31149295 Z M5.73913601,8.00035018 C5.06657116,8.00035018 4.52174537,7.37804617 4.52174537,6.60904659 C4.52174537,5.84000353 5.06657116,5.217743 5.73913601,5.217743 C6.41170086,5.217743 6.95652665,5.84000353 6.95652665,6.60904659 C6.95652665,7.37804617 6.41170086,8.00035018 5.73913601,8.00035018 Z M10.2608727,8.00035018 C9.58830783,8.00035018 9.04348204,7.37804617 9.04348204,6.60904659 C9.04348204,5.84000353 9.58830783,5.217743 10.2608727,5.217743 C10.9334375,5.217743 11.4782633,5.84000353 11.4782633,6.60904659 C11.4782633,7.37804617 10.9334375,8.00035018 10.2608727,8.00035018 Z" id="Shape"></path>
                    </g>
                </g>
            </g>
        </g>
    </g>
</svg>