<?xml version="1.0" encoding="UTF-8"?>
<svg width="16px" height="14px" viewBox="0 0 16 14" version="1.1" xmlns="http://www.w3.org/2000/svg" xmlns:xlink="http://www.w3.org/1999/xlink">
    <title>twitter</title>
    <g id="02.-Landing-Page" stroke="none" stroke-width="1" fill="none" fill-rule="evenodd">
        <g id="Landing-Desktop" transform="translate(-1503.000000, -5924.000000)" fill="#FFFFFF" fill-rule="nonzero">
            <g id="Site-Footer" transform="translate(0.000000, 5786.000000)">
                <g id="Social" transform="translate(1391.000000, 137.000000)">
                    <g id="twitter" transform="translate(112.000000, 1.000000)">
                        <path d="M16,1.56012727 C15.4115954,1.82431549 14.7795161,2.00282151 14.1150083,2.08350415 C14.7929187,1.67222958 15.3129572,1.01961822 15.5581786,0.242763387 C14.9239853,0.624049193 14.221426,0.901089746 13.4737966,1.04960699 C12.8748221,0.404132965 12.0221703,0 11.077941,0 C9.26554335,0 7.79565234,1.48943945 7.79565234,3.32734413 C7.79565234,3.58721826 7.82524803,3.83998076 7.88021145,4.08417504 C5.15106617,3.94494146 2.73336901,2.62046596 1.11406205,0.608343645 C0.832201166,1.10101632 0.67012672,1.67222958 0.67012672,2.28057322 C0.67012672,3.43444689 1.25006269,4.45333681 2.13018351,5.04955643 C1.59182102,5.03169169 1.0858785,4.88247613 0.643351078,4.63326944 L0.643351078,4.67611054 C0.643351078,6.28762143 1.77432918,7.63214656 3.27666129,7.93773214 C3.00043627,8.01343237 2.71082132,8.05340312 2.41204439,8.05340312 C2.20064661,8.05340312 1.99418286,8.03339632 1.79406104,7.99483933 C2.21192257,9.31580186 3.42393789,10.2782701 4.86073247,10.3039747 C3.73681505,11.1965262 2.32114334,11.7284413 0.783579678,11.7284413 C0.51862639,11.7284413 0.257199217,11.7127615 0,11.6820444 C1.45300456,12.6266907 3.1780104,13.1764706 5.03124591,13.1764706 C11.0702039,13.1764706 14.3715184,8.10836825 14.3715184,3.71291405 C14.3715184,3.57008182 14.3680092,3.42587867 14.3616672,3.28304644 C15.002879,2.81325091 15.5595739,2.22844845 15.9985625,1.56226932 L16,1.56012727 Z" id="Path"></path>
                    </g>
                </g>
            </g>
        </g>
    </g>
</svg>